<svg xmlns="http://www.w3.org/2000/svg" viewBox="0 0 192 89.7"><defs><style>.cls-1{fill:#fff;}.cls-2{fill:none;stroke:#489ed6;stroke-width:2px;}.cls-3{font-size:30px;fill:#251e1c;font-family:KozGoPr6N-Regular-90ms-RKSJ-H, Kozuka Gothic Pr6N;}.cls-4{letter-spacing:-0.04em;}.cls-5{letter-spacing:-0.02em;}</style></defs><g id="Layer_2" data-name="Layer 2"><g id="other"><path class="cls-1" d="M181,1H11A10,10,0,0,0,1,11V41A10,10,0,0,0,11,51H84.15L96,86.54,107.85,51H181a10,10,0,0,0,10-10V11A10,10,0,0,0,181,1Z"/><path class="cls-2" d="M181,1H11A10,10,0,0,0,1,11V41A10,10,0,0,0,11,51H84.15L96,86.54,107.85,51H181a10,10,0,0,0,10-10V11A10,10,0,0,0,181,1Z"/><text class="cls-3" transform="translate(21.9 37)">中和が<tspan class="cls-4" x="90" y="0">完</tspan><tspan class="cls-5" x="118.8" y="0">了</tspan></text></g></g></svg>