<svg xmlns="http://www.w3.org/2000/svg" xmlns:xlink="http://www.w3.org/1999/xlink" viewBox="0 0 146 48"><defs><style>.cls-1{fill:none;}.cls-2{clip-path:url(#clip-path);}.cls-3{fill:#ccc;}.cls-4{fill:#f2f2f2;}.cls-5,.cls-6{fill:#b3b3b3;}.cls-6{font-size:18px;font-family:rounded-l-mplus-1c-medium, rounded l-mplus-1c-medium;font-weight:500;}</style><clipPath id="clip-path"><rect class="cls-1" width="146" height="48"/></clipPath><symbol id="再生-invalid" data-name="再生-invalid" viewBox="0 0 146 48"><g class="cls-2"><g class="cls-2"><rect class="cls-3" y="4" width="146" height="44" rx="14"/><rect class="cls-4" x="1.5" y="1.5" width="143" height="41" rx="12.5"/><path class="cls-5" d="M132,3a11,11,0,0,1,11,11V30a11,11,0,0,1-11,11H14A11,11,0,0,1,3,30V14A11,11,0,0,1,14,3H132m0-3H14A14,14,0,0,0,0,14V30A14,14,0,0,0,14,44H132a14,14,0,0,0,14-14V14A14,14,0,0,0,132,0Z"/></g><text class="cls-6" transform="translate(58 28.98)">再 生</text><g class="cls-2"><polygon class="cls-5" points="19.5 29 19.5 15 34.5 22 19.5 29"/></g></g></symbol></defs><g id="Layer_2" data-name="Layer 2"><g id="buttons"><use width="146" height="48" xlink:href="#再生-invalid"/></g></g></svg>