<svg xmlns="http://www.w3.org/2000/svg" viewBox="0 0 415.64 132"><defs><style>.cls-1{fill:#fff;}.cls-2{fill:none;stroke:#489ed6;stroke-width:2px;}.cls-3,.cls-4,.cls-5{font-size:30px;fill:#251e1c;}.cls-3,.cls-9{font-family:A-SOTGothicStd-Regular, A SOTGothicStd-Regular;letter-spacing:-0.05em;}.cls-4{font-family:FutoMinA101Pr6N-Bold, FutoMinA101Pr6N Bold-90ms-RKSJ-H;font-weight:700;}.cls-5{font-family:UDShinGoPr6N-Light, UDShinGoPr6N Light-90ms-RKSJ-H;font-weight:300;}.cls-6{letter-spacing:0.05em;}.cls-7{letter-spacing:-0.5em;}.cls-8{letter-spacing:0.25em;}.cls-9{font-weight:400;}</style></defs><g id="Layer_2" data-name="Layer 2"><g id="other"><path class="cls-1" d="M415.17,22,321,48.48V11A10,10,0,0,0,311,1H11A10,10,0,0,0,1,11V121a10,10,0,0,0,10,10H311a10,10,0,0,0,10-10V72.94Z"/><path class="cls-2" d="M415.17,22,321,48.48V11A10,10,0,0,0,311,1H11A10,10,0,0,0,1,11V121a10,10,0,0,0,10,10H311a10,10,0,0,0,10-10V72.94Z"/><text class="cls-3" transform="translate(26.05 40.71)">H</text><text class="cls-4" transform="translate(44.11 28.71) scale(0.58)">＋</text><text class="cls-5" transform="translate(61.6 40.71)"><tspan class="cls-6">が消費される</tspan><tspan x="189.45" y="0">と</tspan><tspan class="cls-7" x="219.45" y="0">，</tspan><tspan x="-35.55" y="36">酢酸分子が電離して</tspan><tspan class="cls-7" x="234.45" y="36">，</tspan><tspan x="-35.55" y="72">新た</tspan><tspan class="cls-8" x="24.45" y="72">に</tspan><tspan class="cls-9" x="61.95" y="72">H</tspan></text><text class="cls-4" transform="translate(141.61 100.71) scale(0.58)">＋</text><text class="cls-5" transform="translate(159.1 112.71)">が生じる</text></g></g></svg>